<svg id="visual" viewBox="0 0 960 300" width="960" height="300" xmlns="http://www.w3.org/2000/svg" xmlns:xlink="http://www.w3.org/1999/xlink" version="1.1"><rect x="0" y="0" width="960" height="300" fill="#002233"></rect><path d="M0 150L22.8 146C45.7 142 91.3 134 137 127.2C182.7 120.3 228.3 114.7 274 118.5C319.7 122.3 365.3 135.7 411.2 143.3C457 151 503 153 548.8 147.8C594.7 142.7 640.3 130.3 686 119.3C731.7 108.3 777.3 98.7 823 103.5C868.7 108.3 914.3 127.7 937.2 137.3L960 147L960 0L937.2 0C914.3 0 868.7 0 823 0C777.3 0 731.7 0 686 0C640.3 0 594.7 0 548.8 0C503 0 457 0 411.2 0C365.3 0 319.7 0 274 0C228.3 0 182.7 0 137 0C91.3 0 45.7 0 22.8 0L0 0Z" fill="#1e4e63" stroke-linecap="round" stroke-linejoin="miter"></path></svg>