<svg id="visual" viewBox="0 0 960 300" width="960" height="300" xmlns="http://www.w3.org/2000/svg" xmlns:xlink="http://www.w3.org/1999/xlink" version="1.1"><rect x="0" y="0" width="960" height="300" fill="#13b2e7"></rect><path d="M0 83L32 88C64 93 128 103 192 106.3C256 109.7 320 106.3 384 102.8C448 99.3 512 95.7 576 89.3C640 83 704 74 768 70.8C832 67.7 896 70.3 928 71.7L960 73L960 0L928 0C896 0 832 0 768 0C704 0 640 0 576 0C512 0 448 0 384 0C320 0 256 0 192 0C128 0 64 0 32 0L0 0Z" fill="#0d2432" stroke-linecap="round" stroke-linejoin="miter"></path></svg>