<svg id="visual" viewBox="0 0 960 300" width="960" height="300" xmlns="http://www.w3.org/2000/svg" xmlns:xlink="http://www.w3.org/1999/xlink" version="1.1"><rect x="0" y="0" width="960" height="300" fill="#007289"></rect><path d="M0 92L16 85.7C32 79.3 64 66.7 96 60.3C128 54 160 54 192 57.8C224 61.7 256 69.3 288 76.7C320 84 352 91 384 94C416 97 448 96 480 90.2C512 84.3 544 73.7 576 71.7C608 69.7 640 76.3 672 85.3C704 94.3 736 105.7 768 107.3C800 109 832 101 864 99.3C896 97.7 928 102.3 944 104.7L960 107L960 0L944 0C928 0 896 0 864 0C832 0 800 0 768 0C736 0 704 0 672 0C640 0 608 0 576 0C544 0 512 0 480 0C448 0 416 0 384 0C352 0 320 0 288 0C256 0 224 0 192 0C160 0 128 0 96 0C64 0 32 0 16 0L0 0Z" fill="#13b2e7" stroke-linecap="round" stroke-linejoin="miter"></path></svg>